<svg width="61" height="35" viewBox="0 0 61 35" fill="none" xmlns="http://www.w3.org/2000/svg">
<path d="M60.9392 11.782C60.0919 7.35537 50.2496 7.19263 44.3834 7.48557C41.1244 3.12401 35.9426 0.487549 30.5 0.487549C23.2976 0.487549 16.7795 5.0444 14.3027 11.782C14.1071 12.3354 13.9116 12.9212 13.7812 13.5397C13.5205 14.5161 13.3902 15.5252 13.325 16.5016C13.2924 16.8922 13.2924 17.2828 13.2924 17.6734C13.2924 18.3569 13.325 19.0404 13.4228 19.724C13.6509 21.5467 14.1397 23.3043 14.9219 24.9643C13.5531 24.9969 12.2169 24.9969 11.0111 24.9643C4.72118 24.7365 3.05908 23.4671 2.9939 23.0114C2.92872 22.5883 3.93901 20.8306 9.44675 18.3244L9.54452 18.2918V15.0695L9.31639 15.1671C9.05567 15.2973 8.76236 15.395 8.50164 15.5252C2.37468 18.2593 -0.460662 20.9608 0.0607812 23.5973C0.582224 26.2012 4.19973 27.6659 10.8807 27.9263C12.6406 27.9914 14.596 27.9588 16.6166 27.8612C19.843 32.2553 25.0574 34.8918 30.5 34.8918C35.193 34.8918 39.5927 33.0365 42.8517 29.6514L43.1124 29.391H38.6475L38.615 29.4235C36.2359 31.0835 33.4005 31.9624 30.5 31.9624C26.6544 31.9624 22.9391 30.3675 20.2341 27.6008C20.8207 27.5357 21.4073 27.5032 21.994 27.4381C25.253 27.08 28.6424 26.5592 32.0643 25.9083C33.6938 25.5828 35.3233 25.2573 36.9203 24.8667C39.4297 24.2808 41.8088 23.6298 44.0249 22.9463C45.0678 22.6208 46.1107 22.2953 47.0884 21.9373L47.4469 21.8071C49.3045 21.1561 50.9992 20.5051 52.4984 19.8216C58.6253 17.12 61.4607 14.4185 60.9392 11.782ZM16.3885 15.6228C16.5514 14.6138 16.8121 13.6048 17.1706 12.6608C17.2358 12.4981 17.301 12.3028 17.3662 12.1401C19.6149 6.83459 24.7641 3.4495 30.5 3.4495C34.4434 3.4495 38.2891 5.1095 40.994 8.0389C41.711 8.78752 42.3302 9.6338 42.8191 10.5126C44.0901 12.6934 44.7745 15.1671 44.7745 17.7059C44.7745 18.3895 44.7419 19.0404 44.6441 19.6914C43.9272 19.9193 43.145 20.1471 42.3954 20.4075C41.0592 20.7981 39.6578 21.1887 38.2239 21.5467C37.7676 21.6443 37.3439 21.7745 36.8877 21.8722C35.193 22.2628 33.4005 22.6534 31.5429 23.0114C26.9151 23.9228 22.2873 24.5412 18.1483 24.8341C17.2032 23.2392 16.6166 21.5142 16.3559 19.6914C16.2581 19.0404 16.2255 18.3569 16.2255 17.7059C16.2255 16.9899 16.2581 16.2738 16.3885 15.6228ZM46.1107 10.415C47.4143 10.3824 48.7505 10.3824 50.0215 10.415C56.3114 10.6428 57.9735 11.9122 58.0387 12.3679C58.1365 12.791 57.061 14.5812 51.3251 17.1526C50.2171 17.6408 48.9786 18.1616 47.7076 18.6173C47.7402 18.3244 47.7402 17.9989 47.7402 17.6734C47.7402 15.1346 47.1862 12.6934 46.1107 10.415Z" fill="white"/>
</svg>
