<svg width="30" height="30" viewBox="0 0 30 30" fill="none" xmlns="http://www.w3.org/2000/svg">
<path fill-rule="evenodd" clip-rule="evenodd" d="M14.6774 28.4281C22.7835 28.4281 29.3548 22.0642 29.3548 14.214C29.3548 6.36384 22.7835 0 14.6774 0C6.5713 0 0 6.36384 0 14.214C0 18.4836 1.94384 22.3135 5.02122 24.919V27.7954C5.02122 28.9196 6.16632 29.6736 7.18728 29.2217L10.3792 27.8089C11.7386 28.2115 13.1819 28.4281 14.6774 28.4281Z" fill="url(#paint0_linear)"/>
<path d="M11.1627 11.1925L6.90653 17.0134C6.45019 17.6375 7.27087 18.3873 7.89568 17.9171L11.53 15.182C11.8999 14.9036 12.4185 14.8999 12.7927 15.1729L16.0249 17.5308C16.6448 17.983 17.5307 17.8529 17.982 17.2435L22.4457 11.216C22.9086 10.5909 22.0816 9.83502 21.4559 10.3114L17.6136 13.2364C17.2436 13.5181 16.7223 13.5233 16.3463 13.249L13.1246 10.8987C12.5021 10.4447 11.6121 10.578 11.1627 11.1925Z" fill="white"/>
<defs>
<linearGradient id="paint0_linear" x1="14.6774" y1="0" x2="9.96781" y2="29.1949" gradientUnits="userSpaceOnUse">
<stop stop-color="#00B1FF"/>
<stop offset="1" stop-color="#006BFF"/>
</linearGradient>
</defs>
</svg>
