<svg width="33" height="32" viewBox="0 0 33 32" fill="none" xmlns="http://www.w3.org/2000/svg">
<circle cx="16.3548" cy="15.9354" r="15.8065" fill="#4061F9"/>
<path d="M20.7285 17.3705C20.0454 17.3705 19.3747 17.2637 18.7391 17.0536C18.4276 16.9474 18.0448 17.0448 17.8547 17.2401L16.6001 18.1871C15.1452 17.4105 14.249 16.5146 13.483 15.0706L14.4022 13.8487C14.641 13.6102 14.7266 13.2618 14.624 12.935C14.4131 12.296 14.3059 11.6256 14.3059 10.9422C14.3059 10.4485 13.9043 10.0469 13.4106 10.0469H11.3616C10.8679 10.0469 10.4663 10.4485 10.4663 10.9422C10.4663 16.6008 15.0699 21.2044 20.7285 21.2044C21.2222 21.2044 21.6238 20.8027 21.6238 20.3091V18.2658C21.6238 17.7721 21.2222 17.3705 20.7285 17.3705Z" fill="white"/>
</svg>
