<svg width="14" height="12" viewBox="0 0 14 12" fill="none" xmlns="http://www.w3.org/2000/svg">
<path d="M13.1332 0.889816L11.1196 11.0421C11.1196 11.0421 10.838 11.7462 10.0636 11.4082L5.41687 7.84572L3.72722 7.02907L0.882885 6.07151C0.882885 6.07151 0.44638 5.91667 0.404103 5.57872C0.361915 5.24078 0.896977 5.05775 0.896977 5.05775L12.2038 0.62224C12.2038 0.62224 13.1332 0.213919 13.1332 0.889816Z" fill="white"/>
<path d="M5.05827 10.928C5.05827 10.928 4.92264 10.9153 4.75362 10.3802C4.58469 9.8451 3.72577 7.02896 3.72577 7.02896L10.5549 2.69209C10.5549 2.69209 10.9492 2.4527 10.9352 2.69209C10.9352 2.69209 11.0055 2.73428 10.7943 2.93139C10.5831 3.12859 5.42951 7.76114 5.42951 7.76114" fill="#D2E5F1"/>
</svg>
