<svg width="33" height="35" viewBox="0 0 33 35" fill="none" xmlns="http://www.w3.org/2000/svg">
<path fill-rule="evenodd" clip-rule="evenodd" d="M32.2257 16.2339C32.2257 5.87898 28.5781 1.12915 16.4192 1.12915C4.26044 1.12915 0.612793 5.87898 0.612793 16.2339C0.612793 23.6031 2.46022 28.1335 7.90808 30.1334V33.6198C7.90808 34.9031 9.51825 35.4893 10.3523 34.5096L13.1635 31.2078C14.1739 31.2952 15.2578 31.3386 16.4192 31.3386C28.5781 31.3386 32.2257 26.5887 32.2257 16.2339ZM13.8352 28.8261C14.6412 28.8901 15.5016 28.9218 16.4192 28.9218C26.7075 28.9218 29.7939 24.932 29.7939 16.2339C29.7939 7.53576 26.7075 3.5459 16.4192 3.5459C6.13102 3.5459 3.04455 7.53576 3.04455 16.2339C3.04455 22.382 4.58659 26.1778 9.12396 27.875V33.04C9.12396 33.4903 9.68893 33.6959 9.98159 33.3522L13.8352 28.8261Z" fill="#BFC8D0"/>
<path d="M16.4192 28.0618C15.4896 28.0618 14.6181 28.0296 13.8016 27.9645L9.89797 32.5669C9.60152 32.9165 9.02921 32.7073 9.02921 32.2494V26.9973C4.43292 25.2715 2.87085 21.4117 2.87085 15.1599C2.87085 6.31519 5.9974 2.25806 16.4192 2.25806C26.8411 2.25806 29.9676 6.31519 29.9676 15.1599C29.9676 24.0047 26.8411 28.0618 16.4192 28.0618Z" fill="#9179EE"/>
<path fill-rule="evenodd" clip-rule="evenodd" d="M32.2257 15.1047C32.2257 4.74983 28.5781 0 16.4192 0C4.26044 0 0.612793 4.74983 0.612793 15.1047C0.612793 22.4739 2.46022 27.0044 7.90808 29.0043V32.4907C7.90808 33.7739 9.51825 34.3601 10.3523 33.3805L13.1635 30.0786C14.1739 30.1661 15.2578 30.2094 16.4192 30.2094C28.5781 30.2094 32.2257 25.4596 32.2257 15.1047ZM13.8352 27.6969C14.6412 27.7609 15.5016 27.7927 16.4192 27.7927C26.7075 27.7927 29.7939 23.8028 29.7939 15.1047C29.7939 6.40661 26.7075 2.41675 16.4192 2.41675C6.13102 2.41675 3.04455 6.40661 3.04455 15.1047C3.04455 21.2528 4.58659 25.0486 9.12396 26.7458V31.9108C9.12396 32.3611 9.68893 32.5668 9.98159 32.2231L13.8352 27.6969Z" fill="white"/>
<path d="M11.4188 12.6277L11.3781 12.6503L11.3423 12.6799C11.0447 12.9261 10.5956 13.6052 10.9893 14.4466C11.33 15.1748 12.0865 16.6555 13.413 17.7698C14.7134 18.8622 16.1008 19.4484 17.0076 19.6396L17.0586 19.6504H17.1075C17.1092 19.6506 17.1162 19.6511 17.1304 19.6531C17.1536 19.6564 17.181 19.6611 17.2221 19.6683C17.2288 19.6695 17.2357 19.6707 17.2428 19.672C17.524 19.7216 18.1708 19.8358 18.7141 19.2944C19.079 18.9309 19.4119 18.5516 19.5524 18.3842C19.663 18.2812 20.0164 18.0754 20.4623 18.2261C21.2561 18.4945 22.1956 19.0976 22.6461 19.4008C22.9964 19.6365 23.7875 20.2033 24.1435 20.4603L24.1437 20.4605C24.1823 20.4883 24.2602 20.5679 24.3027 20.6781C24.3386 20.771 24.3551 20.8962 24.275 21.0677C24.1362 21.3648 23.7219 21.9188 23.1656 22.4012C22.6003 22.8914 22.0006 23.2098 21.5081 23.2098C21.5083 23.2098 21.4287 23.2026 21.2365 23.1595C21.062 23.1203 20.8271 23.059 20.5408 22.9729C19.9686 22.8007 19.2017 22.5326 18.3165 22.1518C16.5447 21.3895 14.3139 20.1824 12.2247 18.4042C10.9083 17.2836 9.66826 15.7362 8.70383 14.29C7.73225 12.833 7.0785 11.5364 6.89896 10.9311L6.888 10.8942L6.87152 10.8593C6.82382 10.7586 6.75938 10.5507 6.75808 10.3153C6.75681 10.0867 6.81424 9.86278 6.97022 9.67586C7.44741 9.10401 7.95643 8.53796 9.07568 7.99648C9.18713 7.94257 9.35797 7.89628 9.52642 7.89357C9.69842 7.8908 9.80137 7.93305 9.85167 7.97715C10.2777 8.35069 10.9375 9.00955 11.3832 9.57398C11.6125 9.86442 11.8894 10.2331 12.1202 10.5534C12.2355 10.7136 12.3376 10.8592 12.4154 10.9753C12.4544 11.0335 12.4858 11.0819 12.5092 11.1198C12.53 11.1536 12.5391 11.1704 12.5413 11.1743C12.5418 11.1753 12.5419 11.1755 12.5417 11.175C12.541 11.1735 12.5411 11.1739 12.5418 11.1761C12.5444 11.1841 12.5549 11.2164 12.5637 11.2738C12.574 11.3409 12.5789 11.4231 12.572 11.5091C12.5577 11.6845 12.4993 11.8344 12.3862 11.938C12.0503 12.2456 11.5972 12.5289 11.4188 12.6277ZM16.6644 6.22799C16.6644 6.2153 16.669 6.19835 16.6884 6.18004C16.7084 6.16124 16.7409 6.14526 16.7836 6.14526C21.3236 6.14526 24.9516 9.60207 24.9516 13.8034C24.9516 13.8161 24.947 13.8331 24.9276 13.8514C24.9076 13.8702 24.8751 13.8862 24.8325 13.8862C24.7898 13.8862 24.7573 13.8702 24.7373 13.8514C24.7179 13.8331 24.7133 13.8161 24.7133 13.8034C24.7133 9.63719 21.134 6.31072 16.7836 6.31072C16.7409 6.31072 16.7084 6.29474 16.6884 6.27594C16.669 6.25763 16.6644 6.24068 16.6644 6.22799ZM16.6644 10.8898C16.6644 10.8771 16.669 10.8602 16.6884 10.8419C16.7084 10.8231 16.7409 10.8071 16.7836 10.8071C18.5881 10.8071 19.9984 12.1767 19.9984 13.8034C19.9984 13.8161 19.9939 13.8331 19.9744 13.8514C19.9544 13.8702 19.922 13.8862 19.8793 13.8862C19.8366 13.8862 19.8041 13.8702 19.7842 13.8514C19.7647 13.8331 19.7601 13.8161 19.7601 13.8034C19.7601 12.2118 18.3985 10.9725 16.7836 10.9725C16.7409 10.9725 16.7084 10.9566 16.6884 10.9377C16.669 10.9194 16.6644 10.9025 16.6644 10.8898ZM16.6644 8.5589C16.6644 8.5462 16.669 8.52925 16.6884 8.51095C16.7084 8.49214 16.7409 8.47617 16.7836 8.47617C19.9559 8.47617 22.475 10.8894 22.475 13.8034C22.475 13.8161 22.4704 13.8331 22.451 13.8514C22.431 13.8702 22.3985 13.8862 22.3559 13.8862C22.3132 13.8862 22.2807 13.8702 22.2607 13.8514C22.2413 13.8331 22.2367 13.8161 22.2367 13.8034C22.2367 10.9245 19.7663 8.64162 16.7836 8.64162C16.7409 8.64162 16.7084 8.62565 16.6884 8.60685C16.669 8.58854 16.6644 8.57159 16.6644 8.5589Z" fill="white" stroke="white" stroke-linecap="round"/>
</svg>
