<svg width="15" height="15" viewBox="0 0 15 15" fill="none" xmlns="http://www.w3.org/2000/svg">
<path d="M13.7779 4.16911L13.7739 4.15318C13.4517 2.85054 11.999 1.45273 10.6649 1.16193L10.6499 1.15883C8.49207 0.747188 6.30418 0.747188 4.14683 1.15883L4.13134 1.16193C2.79771 1.45273 1.34502 2.85054 1.02234 4.15318L1.0188 4.16911C0.620441 5.9883 0.620441 7.83316 1.0188 9.65234L1.02234 9.66827C1.33125 10.9153 2.67577 12.2489 3.96004 12.6157V14.0698C3.96004 14.5961 4.6014 14.8545 4.96612 14.4748L6.4394 12.9433C6.75893 12.9612 7.07864 12.9712 7.39834 12.9712C8.48454 12.9712 9.57119 12.8685 10.6499 12.6627L10.6649 12.6596C11.999 12.3688 13.4517 10.971 13.7739 9.66832L13.7779 9.65239C14.1762 7.83316 14.1762 5.9883 13.7779 4.16911ZM12.612 9.38854C12.3969 10.2384 11.2939 11.2949 10.4175 11.4901C9.27016 11.7083 8.11376 11.8015 6.95851 11.7695C6.93554 11.7689 6.91345 11.7778 6.89743 11.7943C6.73348 11.9626 5.82172 12.8985 5.82172 12.8985L4.67753 14.0728C4.59388 14.16 4.44693 14.1007 4.44693 13.9803V11.5715C4.44693 11.5317 4.41851 11.4979 4.37943 11.4902C4.3792 11.4902 4.37898 11.4901 4.37876 11.4901C3.50237 11.2949 2.39979 10.2383 2.18423 9.38849C1.82571 7.74414 1.82571 6.07722 2.18423 4.43287C2.39979 3.58304 3.50237 2.52649 4.37876 2.33129C6.38252 1.9502 8.41417 1.9502 10.4175 2.33129C11.2943 2.52649 12.3969 3.58304 12.612 4.43287C12.9709 6.07727 12.9709 7.74419 12.612 9.38854Z" fill="white"/>
<path d="M9.30548 10.5001C9.17075 10.4592 9.04234 10.4317 8.9231 10.3822C7.68747 9.86956 6.55028 9.20819 5.6495 8.19436C5.13725 7.61785 4.73632 6.96697 4.3974 6.27815C4.23669 5.9515 4.10124 5.61205 3.96319 5.27481C3.83731 4.96728 4.02272 4.64956 4.21796 4.41785C4.40116 4.20039 4.63691 4.03396 4.89221 3.91131C5.09148 3.81557 5.28805 3.87077 5.43358 4.03967C5.7482 4.40484 6.03719 4.78868 6.27121 5.21196C6.4151 5.47231 6.37562 5.79056 6.11483 5.96774C6.05144 6.01081 5.99368 6.06136 5.93464 6.11C5.88285 6.15263 5.83411 6.19569 5.79862 6.25341C5.73373 6.35902 5.73063 6.48358 5.77241 6.59839C6.09402 7.48222 6.63611 8.16949 7.52569 8.53965C7.66804 8.59888 7.81101 8.66784 7.975 8.64872C8.24965 8.61663 8.33857 8.31538 8.53102 8.15798C8.71914 8.00417 8.95953 8.00213 9.16216 8.13036C9.36484 8.25863 9.56132 8.39633 9.75661 8.53549C9.94831 8.67209 10.1392 8.80571 10.316 8.96143C10.486 9.11117 10.5446 9.30761 10.4488 9.51082C10.2735 9.88297 10.0185 10.1926 9.6506 10.3902C9.54671 10.4459 9.42265 10.464 9.30548 10.5001C9.17075 10.4591 9.42265 10.464 9.30548 10.5001Z" fill="white"/>
<path d="M7.40345 3.48602C9.01969 3.5313 10.3472 4.60392 10.6316 6.20179C10.6801 6.47405 10.6974 6.75241 10.7189 7.02874C10.728 7.14498 10.6622 7.25541 10.5367 7.25692C10.4072 7.25846 10.3489 7.15007 10.3405 7.03388C10.3238 6.80389 10.3123 6.57288 10.2806 6.3448C10.1133 5.14082 9.15323 4.14474 7.95483 3.93099C7.7745 3.89882 7.58993 3.89036 7.40726 3.8712C7.29178 3.85907 7.14053 3.85207 7.11495 3.70853C7.09348 3.58818 7.19506 3.49235 7.30966 3.4862C7.34082 3.48448 7.37216 3.48589 7.40345 3.48602C9.01969 3.5313 7.37216 3.48589 7.40345 3.48602Z" fill="white"/>
<path d="M9.85842 6.6698C9.85576 6.68999 9.85435 6.73744 9.84253 6.78214C9.79964 6.94441 9.55363 6.96472 9.49697 6.80095C9.4802 6.75235 9.47767 6.69707 9.47759 6.64475C9.47701 6.30242 9.40261 5.96045 9.22998 5.66261C9.05253 5.35649 8.78143 5.09915 8.46345 4.94344C8.27117 4.84929 8.06323 4.79077 7.85249 4.7559C7.76038 4.74067 7.6673 4.73142 7.57475 4.71854C7.46259 4.70296 7.4027 4.63147 7.40801 4.52095C7.41297 4.41738 7.48866 4.34288 7.60153 4.34926C7.97244 4.37033 8.3307 4.45049 8.66046 4.6251C9.33103 4.98022 9.71408 5.54076 9.82589 6.28923C9.83093 6.32314 9.83908 6.35673 9.84164 6.39077C9.84797 6.47483 9.85196 6.55897 9.85842 6.6698C9.85576 6.68999 9.85196 6.55897 9.85842 6.6698Z" fill="white"/>
<path d="M8.85166 6.63098C8.71644 6.63342 8.64407 6.55857 8.63012 6.43459C8.62043 6.34815 8.61277 6.26055 8.59215 6.17645C8.55151 6.01082 8.46348 5.85732 8.32414 5.75583C8.25836 5.70789 8.18383 5.67297 8.10575 5.65044C8.00656 5.6218 7.90356 5.62968 7.80459 5.60543C7.69712 5.57909 7.63767 5.49207 7.65458 5.39124C7.66994 5.29948 7.75922 5.22787 7.85947 5.23513C8.48609 5.28036 8.93394 5.60432 8.99786 6.342C9.00237 6.39405 9.00768 6.44907 8.99613 6.49886C8.97634 6.58411 8.91323 6.62682 8.85166 6.63098C8.71644 6.63342 8.91323 6.62682 8.85166 6.63098Z" fill="white"/>
</svg>
